PathFileType	4	(X/Y/Z)	Patient4_TMGait_0pt5_01_left_13.trc.trc
DataRate	CameraRate	NumFrames	NumMarkers	Units	OrigDataRate	OrigDataStartFrame	OrigNumFrames
74.866310160428	74.866310160428	4	33	mm	74.866310160428	36	       141
Frame#	Time	L.ASIS			Sacral			L.Shoulder			Chest			R.Shoulder			Neck			R.ASIS			R.Thigh.Superior			R.Thigh.Lateral			R.Thigh.Inferior			R.Patella			L.Thigh.Superior			L.Thigh.Lateral			L.Thigh.Inferior			L.Patella			L.Shank.Superior			L.Shank.Lateral			L.Shank.Inferior			R.Shank.Superior			R.Shank.Lateral			R.Shank.Inferior			R.Heel			R.Midfoot.Superior			R.Midfoot.Lateral			R.Toe			L.Heel			L.Midfoot.Lateral			L.Midfoot.Superior			L.Toe			L.Elbow			L.Wrist			R.Elbow			R.Wrist			
		X1	Y1	Z1	X2	Y2	Z2	X3	Y3	Z3	X4	Y4	Z4	X5	Y5	Z5	X6	Y6	Z6	X7	Y7	Z7	X8	Y8	Z8	X9	Y9	Z9	X10	Y10	Z10	X11	Y11	Z11	X12	Y12	Z12	X13	Y13	Z13	X14	Y14	Z14	X15	Y15	Z15	X16	Y16	Z16	X17	Y17	Z17	X18	Y18	Z18	X19	Y19	Z19	X20	Y20	Z20	X21	Y21	Z21	X22	Y22	Z22	X23	Y23	Z23	X24	Y24	Z24	X25	Y25	Z25	X26	Y26	Z26	X27	Y27	Z27	X28	Y28	Z28	X29	Y29	Z29	X30	Y30	Z30	X31	Y31	Z31	X32	Y32	Z32	X33	Y33	Z33	

36	17.797500000000	774.573960051849	955.574819480726	309.269943383122	576.868911408804	1002.213740106454	487.158805398562	714.755769005246	1426.695285538821	285.478774580004	840.919718792912	1359.842580961477	430.552089324540	781.811416249268	1435.036629439424	614.076531826767	735.255062822617	1490.452502762836	434.250365499050	810.168301762344	933.463401883758	582.080570156113	807.696308340445	718.818514560239	559.331915197066	706.627893939766	625.684504013295	624.681693762255	766.922896845774	557.368940116951	545.162165635738	745.728285612973	463.524125534516	553.893583244092	851.260059054026	764.526975625534	348.795715029185	785.959983617156	637.397867469018	283.992159711219	881.524167183784	572.864096862490	348.748024136531	893.019644809959	500.436014186024	355.108372723475	871.347659671475	426.023936758087	345.519348843098	791.977314543424	305.423752478041	292.941544512396	853.509709346160	197.795162158138	360.869839982581	691.539469259843	387.135120935623	563.105982060855	593.215883218291	310.436828431377	627.639723529589	606.957795695756	205.512458331233	569.550224154740	435.854947853763	66.930424935089	540.815280856568	610.286353748025	100.867091118355	584.885289867288	513.745396765716	48.940027027994	618.287332261737	720.354826069803	37.364502230487	621.203056979141	736.214990163294	37.745153158113	399.900621586081	810.775253238415	35.565395350876	319.418512254740	892.815669741369	97.521691149950	346.190887132489	1021.503382816510	47.956856505301	319.019575005874	627.284068698813	1076.463690632854	191.359470328001	666.772219544576	818.023757530121	188.270151401513	921.855113583266	1121.411542993166	713.438889367372	1132.621972245956	1202.634308239610	607.877184098858	
37	17.810857142857	775.769551674011	956.526225384508	306.985031368136	576.887396269968	1003.217836632138	483.649340414717	716.157764469068	1427.638703392999	282.802656405379	841.429492949230	1360.699431006836	428.599620954632	781.407652454153	1436.126645255702	611.703869134548	735.850204829345	1491.430824656770	431.650680786692	809.855866072852	934.447964545919	580.024286061058	809.176509558591	719.909855752101	557.967421103579	708.681797562902	626.078519848926	622.824591275038	770.627888561121	557.823091347401	544.160166592485	750.053444996832	462.496155528088	553.909141352255	851.423269102374	764.421370782071	346.646909600531	784.916059465722	637.539706530303	282.511604961445	879.711905027541	572.276157323047	347.467327516164	890.550385293444	499.910936460559	354.429653793154	868.273892869044	425.553788958621	344.981542885921	788.172206937200	305.565434150420	292.315633239569	848.067258584192	197.534018590905	360.815395204335	693.490991888394	387.205357718453	562.608426392129	593.022375941406	313.019225215712	626.779942209806	605.018999234137	207.430859258238	569.500412664715	430.889626388561	72.658389794171	540.842700094267	606.185409692236	101.874068765649	585.182530474967	508.280579084170	52.343121527466	618.221658936224	714.204292955722	36.915926251566	621.163377224626	729.555731551903	37.766657217615	399.866082796585	804.106338292072	35.636960839153	319.377010655186	886.157763722779	97.591661227465	346.201479686252	1014.882506071869	47.896064492489	318.908508136520	632.758557335364	1076.413008857713	187.492647329401	678.865440898498	819.060230531922	182.900056357810	916.045037678918	1118.989415385550	710.850902332621	1132.321014021447	1188.739029766354	607.511333352512	
38	17.824214285714	776.922314293314	957.446028067879	304.768208539276	576.786480542013	1004.190102963160	480.069456704779	717.610975699954	1428.635807921646	280.159402003531	841.845910510752	1361.607556203058	426.785970430265	780.710168676906	1437.178359993522	609.427787510040	736.328999714591	1492.424250433703	429.114242033487	809.460136060085	935.464987030643	578.015120358304	811.069473081392	721.133642029772	556.628547046535	711.344333340117	626.432048904004	620.997239161667	775.078334511771	558.342510552236	543.200048793554	755.181131441791	461.508890060374	554.034171977245	851.286928859460	764.029262432165	344.236662782743	783.333035340213	637.540135212961	280.962164191766	877.377380625789	571.520344193774	346.063275091235	887.562029368216	499.289824674512	353.612782919871	864.726963802590	425.032232477170	344.325339896859	783.947413477240	305.568150109319	291.681050191875	842.416929228289	197.219677245359	360.688502275473	696.221744220311	387.329280395802	562.185538035732	593.544086020018	315.847070494828	625.888142089475	603.648295441801	209.605397994280	569.456114468679	426.353710574078	79.183743367131	540.774148429410	602.415837210408	103.000689731914	585.429091591554	503.047160550556	56.330165407881	618.116889110324	708.025934795560	36.467564723760	621.101044024477	722.794744704270	37.780526157457	399.831980235686	797.341178054677	35.639599261368	319.337742784444	879.474147421403	97.536850508972	346.202328501447	1008.219415633540	47.555673589164	318.809061515796	638.166213869439	1076.570012540935	183.473140700484	691.331787267823	820.557261583245	177.602015021045	909.719328736435	1116.570484326067	708.297062463280	1131.434890229008	1173.503549627907	607.624478220004	
39	17.837571428571	778.004422687223	958.308877652440	302.620588505648	576.575909558587	1005.092349763663	476.464179765665	719.096693660271	1429.639666809212	277.567955959437	842.170307578866	1362.521950941681	425.115226948165	779.743719794517	1438.150169874349	607.261027163791	736.690717153840	1493.393111371594	426.653765339054	808.969982309964	936.460142715621	576.042873517667	813.367149322490	722.465603189242	555.250863483280	714.657248999311	626.722984829163	619.188005336303	780.267670601593	558.923265553142	542.220583473418	761.096391495868	460.576140641767	554.192150204385	850.863088463300	763.393425137986	341.642671344869	781.307212870516	637.441111399100	279.340408776426	874.593459553001	570.644537858138	344.560512143156	884.107361930813	498.591144522679	352.658930686475	860.773899791345	424.468935632916	343.541500621383	779.375423872067	305.444316472606	291.010599190818	836.616953143694	196.862147833369	360.484967226448	699.753936333782	387.505627111502	561.795823902168	594.830363772024	318.927609351108	624.950712658565	602.874577482543	212.061182839860	569.389413583942	422.326455193982	86.586667802425	540.583227616665	598.980068604875	104.306585736253	585.597120696790	498.086365261691	60.999516205588	617.951619225978	701.792969048149	35.985501211271	621.031434745674	715.975345856412	37.791814066849	399.792232996845	790.524010623325	35.589758687060	319.296505656034	872.795004795173	97.378477167414	346.196937024511	1001.543464177678	46.988521783999	318.731333253097	643.536251147669	1076.889469341496	179.281571971308	704.146368393546	822.489339846253	172.398879767222	902.918981431743	1114.142922326553	705.809676751400	1129.778537935110	1156.967553802393	608.257392186441	
